{"accessors" : [{"bufferView" : 0, "byteOffset" : 0, "componentType" : 5123, "count" : 12174, "type" : "SCALAR", "max" : [9084], "min" : [0]}, {"bufferView" : 1, "byteOffset" : 0, "componentType" : 5126, "count" : 9085, "type" : "VEC3", "max" : [529.8452758789062, 1587.7796630859375, 124.91400146484375], "min" : [-532.695068359375, 1116.072021484375, -142.96766662597656], "name" : "POSITION"}, {"bufferView" : 1, "byteOffset" : 12, "componentType" : 5126, "count" : 9085, "type" : "VEC2", "max" : [0.9960020184516907, -0.01344200037419796], "min" : [0.01449500024318695, -0.9920340180397034], "name" : "TEXCOORD_0"}, {"bufferView" : 1, "byteOffset" : 20, "componentType" : 5126, "count" : 9085, "type" : "VEC3", "max" : [0.9925940632820129, 0.9262863993644714, 0.999841570854187], "min" : [-0.9920560717582703, -0.9934870600700378, -0.9998403191566467], "name" : "NORMAL"}], "asset" : {"generator" : "Aspose.3D 23.4.0", "version" : "2.0"}, "buffers" : [{"uri" : "data:application/octet-stream;base64,", "byteLength" : 413924}], "bufferViews" : [{"buffer" : 0, "byteOffset" : 0, "byteLength" : 24348, "target" : 34963}, {"buffer" : 0, "byteOffset" : 24352, "byteLength" : 389568, "byteStride" : 32, "target" : 34962}], "meshes" : [{"primitives" : [{"attributes" : {"POSITION" : 1, "TEXCOORD_0" : 2, "NORMAL" : 3}, "indices" : 0, "mode" : 4}], "name" : ""}], "nodes" : [{"mesh" : 0, "name" : "BellyButtonLongSleeveShirt"}], "scene" : 0, "scenes" : [{"nodes" : [0]}]}